<svg xmlns="http://www.w3.org/2000/svg" viewBox="0 0 400 260" width="400" height="260">
  <defs>
    <linearGradient id="bgOtro" x1="0%" y1="0%" x2="100%" y2="100%">
      <stop offset="0%" style="stop-color:#110d1f"/>
      <stop offset="100%" style="stop-color:#1a1430"/>
    </linearGradient>
  </defs>
  <rect width="400" height="260" fill="url(#bgOtro)"/>
  <!-- Decorative circles -->
  <circle cx="200" cy="120" r="90" fill="none" stroke="#00b4a6" stroke-width="1" opacity="0.2"/>
  <circle cx="200" cy="120" r="70" fill="none" stroke="#00b4a6" stroke-width="1" opacity="0.15"/>
  <circle cx="200" cy="120" r="50" fill="none" stroke="#c06010" stroke-width="1" opacity="0.2"/>
  <!-- Trophy -->
  <path d="M175,60 L225,60 L220,115 Q210,130 200,130 Q190,130 180,115 Z" fill="#c8960a" opacity="0.9"/>
  <rect x="190" y="128" width="20" height="20" rx="2" fill="#c8960a" opacity="0.8"/>
  <rect x="178" y="145" width="44" height="8" rx="4" fill="#c8960a" opacity="0.8"/>
  <!-- Trophy handles -->
  <path d="M175,70 Q155,70 155,90 Q155,110 175,115" fill="none" stroke="#c8960a" stroke-width="6" stroke-linecap="round"/>
  <path d="M225,70 Q245,70 245,90 Q245,110 225,115" fill="none" stroke="#c8960a" stroke-width="6" stroke-linecap="round"/>
  <!-- Star shine -->
  <polygon points="200,45 203,57 215,57 206,64 209,76 200,69 191,76 194,64 185,57 197,57" fill="#f5d842" opacity="0.8"/>
  <!-- Sport icons around -->
  <text x="80" y="95" font-size="24" font-family="Arial">⚽</text>
  <text x="295" y="95" font-size="22" font-family="Arial">🎾</text>
  <text x="80" y="155" font-size="22" font-family="Arial">🏈</text>
  <text x="298" y="155" font-size="22" font-family="Arial">🏐</text>
  <!-- Label -->
  <text x="200" y="205" font-family="Arial, sans-serif" font-size="13" fill="#00b4a6" text-anchor="middle" font-weight="bold" opacity="0.8">OTROS DEPORTES</text>
</svg>
